<?xml version="1.0" standalone="no"?><!DOCTYPE svg PUBLIC "-//W3C//DTD SVG 1.1//EN" "http://www.w3.org/Graphics/SVG/1.1/DTD/svg11.dtd"><svg t="1565446559649" class="icon" viewBox="0 0 1097 1024" version="1.1" xmlns="http://www.w3.org/2000/svg" p-id="3351" xmlns:xlink="http://www.w3.org/1999/xlink" width="34.28125" height="32"><defs><style type="text/css"></style></defs><path d="M8.533333 57.782857c264.777143 1.219048 529.554286-1.950476 794.331429 1.219048 36.08381-4.144762 72.167619 25.112381 68.998095 62.902857 2.438095 174.32381 0.24381 348.891429 0.487619 523.215238-27.306667 16.335238-54.857143 37.302857-88.746666 33.889524-129.950476 1.706667-260.144762-0.731429-390.095239 0.243809-63.146667 82.651429-124.099048 167.253333-193.097142 245.272381 0.24381-81.67619 0.975238-163.108571 2.194285-244.540952-61.44-9.99619-159.207619 27.550476-189.683809-47.299048-9.99619-191.146667 0-383.268571-4.388572-574.902857M75.824762 216.990476c65.340952 42.910476 143.847619 30.96381 217.478095 32.182857 138.971429-1.462857 278.186667 0.975238 417.158095-0.243809 35.84 5.851429 62.659048-18.285714 88.502858-38.278095-134.826667-21.211429-272.091429-7.070476-407.893334-10.971429-105.081905 3.657143-212.601905-12.678095-315.245714 17.310476m6.582857 137.752381c31.207619 28.525714 70.217143 43.885714 112.64 38.521905 146.529524 0.24381 293.059048-1.219048 439.588571 0.243809 56.807619-1.462857 122.63619 10.971429 163.352381-39.740952-118.735238-18.285714-239.420952-7.801905-358.887619-10.483809-118.979048 2.681905-238.689524-8.045714-356.693333 11.459047m0.24381 145.310476c25.6 16.335238 50.712381 40.71619 84.114285 36.327619 156.038095 2.925714 312.32-0.731429 468.358096 1.462858 56.32-1.950476 122.392381 11.702857 161.645714-40.228572-126.537143-19.748571-255.268571-8.289524-382.780953-11.215238-110.445714 2.194286-222.110476-8.533333-331.337142 13.653333z" fill="#1296db" p-id="3352"></path><path d="M920.380952 434.468571c42.422857 3.413333 84.845714 5.12 126.780953 12.678096 25.35619 32.426667 13.653333 76.312381 16.822857 114.346666-2.438095 78.262857 4.632381 157.013333-4.632381 235.032381-25.84381 47.786667-93.622857 19.992381-137.508571 30.72 0 54.125714 0.487619 108.251429-3.657143 162.377143-45.104762-51.687619-82.407619-109.226667-122.392381-165.059047-76.312381-0.975238-152.868571 5.12-228.937143-3.900953-34.620952-16.091429-27.062857-62.171429-39.497143-91.91619 111.908571-4.144762 225.03619 8.533333 336.213333-6.826667 102.64381-52.906667 39.497143-195.291429 56.807619-287.451429z" fill="#1296db" p-id="3353"></path></svg>