<?xml version="1.0" standalone="no"?><!DOCTYPE svg PUBLIC "-//W3C//DTD SVG 1.1//EN" "http://www.w3.org/Graphics/SVG/1.1/DTD/svg11.dtd"><svg t="1565446010859" class="icon" viewBox="0 0 1024 1024" version="1.1" xmlns="http://www.w3.org/2000/svg" p-id="2462" width="32" height="32" xmlns:xlink="http://www.w3.org/1999/xlink"><defs><style type="text/css"></style></defs><path d="M533.44411372 298.14204918a99.28624739 99.28624739 0 0 0 97.78516024-100.78733545 101.85954173 101.85954173 0 0 0-35.59722985-77.84213367 70.12225249 70.12225249 0 0 1 3.21661702 19.94302657 66.90563547 66.90563547 0 1 1-133.59682915 0 69.69337072 69.69337072 0 0 1 1.92996984-16.08308598 101.85954173 101.85954173 0 0 0-31.52284743 73.98219308 99.28624739 99.28624739 0 0 0 97.78515933 100.78733545z m-3.00217613-128.66468316a66.2623119 66.2623119 0 0 0 64.33234204-67.12007729 64.33234206 64.33234206 0 1 0-130.38021305 0 66.2623119 66.2623119 0 0 0 64.33234206 67.12007729zM70.03681136 771.84252708l157.39979629 62.831254c-12.65202716-26.16181879-64.33234206-421.59128031-64.33234204-421.5912803zM710.143613 978.77822667l10.07873374-154.39762021-352.97011589 36.66943428z m107.22056947-850.90244184l-171.55291153 25.94737791a134.66903543 134.66903543 0 0 1 16.29752687 64.33234203 128.66468409 128.66468409 0 1 1-257.32936728 0 137.45677066 137.45677066 0 0 1 3.0021752-28.30623042L196.98596558 222.22988627c7.71988119 204.14796524 99.0718065 610.08504228 99.07180649 610.08504228l657.90541657-115.15489249c-45.67596265-47.17705072-137.24232977-589.06981034-137.24232883-589.06981033z m-495.57347339 321.66170934l279.84568728-41.38714029 8.36320478 31.09396568-280.27456997 42.24490476z m60.04351876 235.88525357l-10.07873281-35.59722892 343.96358752-49.32146236L726.44113987 635.6724036z m-21.44411371-102.2884235L346.8803225 549.89594785 790.77348191 488.78022282l13.50979164 35.16834713z m0 0" fill="#FF8000" p-id="2463"></path></svg>