<?xml version="1.0" standalone="no"?><!DOCTYPE svg PUBLIC "-//W3C//DTD SVG 1.1//EN" "http://www.w3.org/Graphics/SVG/1.1/DTD/svg11.dtd"><svg t="1565446608746" class="icon" viewBox="0 0 1024 1024" version="1.1" xmlns="http://www.w3.org/2000/svg" p-id="4352" width="128" height="128" xmlns:xlink="http://www.w3.org/1999/xlink"><defs><style type="text/css"></style></defs><path d="M512 1024C229.2224 1024 0 794.7776 0 512 0 229.2224 229.2224 0 512 0c282.7776 0 512 229.2224 512 512 0 282.7776-229.2224 512-512 512z m3.310933-836.164267V187.733333c-10.1888 0.034133-20.3776 0.785067-30.446933 2.286934a132.061867 132.061867 0 0 0-31.505067 8.789333 137.557333 137.557333 0 0 0-30.72 17.92 122.436267 122.436267 0 0 0-27.306666 29.661867 137.3696 137.3696 0 0 0-20.224 43.008 292.932267 292.932267 0 0 0-9.198934 44.9536c-2.184533 16.4352-3.072 32.9728-2.628266 49.527466a42.922667 42.922667 0 0 0-8.3968 13.687467 61.0816 61.0816 0 0 0-3.413334 15.650133c-0.631467 6.826667 0.3584 13.6704 2.901334 20.087467 1.501867 6.024533 4.078933 11.741867 7.594666 16.9472 2.423467 3.345067 5.239467 6.4 8.413867 9.1136 2.6624 2.013867 5.6832 3.566933 8.925867 4.573867 1.979733 6.980267 4.078933 13.9264 6.2976 20.821333 2.321067 5.5808 4.676267 11.1104 7.082666 16.64 2.0992 4.744533 5.12 9.045333 8.925867 12.6976 6.894933 5.7344 13.550933 11.7248 19.968 17.937067 6.314667 6.485333 9.949867 14.933333 10.24 23.790933 0.512 6.9632 0.785067 13.2608 0.785067 18.909867a38.912 38.912 0 0 1-3.413334 16.298666 53.111467 53.111467 0 0 1-10.24 15.633067 92.842667 92.842667 0 0 1-20.48 16.298667 137.3184 137.3184 0 0 1-39.645866 16.9472c-14.677333 3.7888-29.115733 8.260267-43.332267 13.3632a124.637867 124.637867 0 0 0-36.5056 20.087466 54.033067 54.033067 0 0 0-18.909867 36.8128 247.432533 247.432533 0 0 0-2.884266 69.085867c-0.0512 11.349333 3.413333 22.459733 9.984 31.914667 5.5808 3.3792 11.844267 5.597867 18.3808 6.536533 9.984 2.167467 21.794133 4.352 35.976533 6.519467 14.165333 2.1504 29.934933 4.215467 47.274667 6.178133 17.373867 1.962667 34.816 3.703467 52.241066 5.2224 17.578667 1.536 34.4064 2.7136 50.944 3.584 16.554667 0.887467 30.976 1.314133 43.332267 1.314133 12.3392 0 27.0336-0.426667 43.861333-1.297066 17.681067-0.938667 35.362133-2.133333 53.026134-3.601067a1476.625067 1476.625067 0 0 0 54.613333-5.546667 754.722133 754.722133 0 0 0 49.629867-7.543466 369.288533 369.288533 0 0 0 37.034666-8.789334 38.280533 38.280533 0 0 0 18.3808-9.1136c3.5328-6.485333 5.768533-13.568 6.5536-20.8384a172.544 172.544 0 0 0 2.372267-29.3376c0-10.325333-0.512-20.650667-1.570133-30.958933a140.1856 140.1856 0 0 0-4.727467-25.736533 54.9376 54.9376 0 0 0-19.694933-27.613867 132.608 132.608 0 0 0-31.778134-16.964267 390.8096 390.8096 0 0 0-36.7616-12.049066 302.626133 302.626133 0 0 1-34.9184-11.7248 93.559467 93.559467 0 0 1-28.1088-16.298667 63.317333 63.317333 0 0 1-14.6944-19.217067 58.282667 58.282667 0 0 1-5.5296-20.087466 83.626667 83.626667 0 0 1 1.314134-19.848534 39.594667 39.594667 0 0 1 10.24-23.1424c6.536533-5.666133 13.192533-11.2128 19.968-16.622933 3.8912-3.669333 7.082667-7.970133 9.454933-12.6976 2.6112-5.461333 4.983467-10.973867 7.338667-16.622933 2.218667-6.912 4.334933-13.8752 6.314666-20.855467 4.539733-1.450667 8.686933-3.908267 12.066134-7.150933 3.908267-3.6864 7.099733-7.9872 9.454933-12.714667a69.290667 69.290667 0 0 0 5.512533-21.8112c0.785067-5.853867 0.6144-11.776-0.512-17.578667a48.3328 48.3328 0 0 0-3.9424-11.7248 25.088 25.088 0 0 0-7.099733-8.465066 390.417067 390.417067 0 0 0-3.413333-52.736 323.584 323.584 0 0 0-10.752-47.889067 141.550933 141.550933 0 0 0-24.4224-45.9264 101.410133 101.410133 0 0 0-19.456-18.261333 157.354667 157.354667 0 0 0-28.603734-16.298667 186.8288 186.8288 0 0 0-34.4064-11.383467 161.826133 161.826133 0 0 0-36.7616-4.2496z" fill="#009B63" p-id="4353"></path></svg>